<?xml version="1.0" encoding="UTF-8" standalone="no"?>
<svg
   version="1.1"
   viewBox="0 0 197.53542 139.01569"
   fill="none"
   stroke="none"
   stroke-linecap="square"
   stroke-miterlimit="10"
   id="svg375"
   sodipodi:docname="verible-logos-single2.svg"
   inkscape:version="1.1.1 (3bf5ae0d25, 2021-09-20)"
   width="197.53543"
   height="139.0157"
   xmlns:inkscape="http://www.inkscape.org/namespaces/inkscape"
   xmlns:sodipodi="http://sodipodi.sourceforge.net/DTD/sodipodi-0.dtd"
   xmlns="http://www.w3.org/2000/svg"
   xmlns:svg="http://www.w3.org/2000/svg">
  <defs
     id="defs379" />
  <sodipodi:namedview
     id="namedview377"
     pagecolor="#ffffff"
     bordercolor="#666666"
     borderopacity="1.0"
     inkscape:pageshadow="2"
     inkscape:pageopacity="0.0"
     inkscape:pagecheckerboard="0"
     showgrid="false"
     inkscape:zoom="1.2744678"
     inkscape:cx="136.13526"
     inkscape:cy="173.40572"
     inkscape:window-width="1920"
     inkscape:window-height="1006"
     inkscape:window-x="0"
     inkscape:window-y="0"
     inkscape:window-maximized="1"
     inkscape:current-layer="svg375"
     width="200px"
     fit-margin-top="0"
     fit-margin-left="0"
     fit-margin-right="0"
     fit-margin-bottom="0" />
  <clipPath
     id="p.0">
    <path
       d="M 0,0 H 1078.2021 V 1305.6431 H 0 Z"
       clip-rule="nonzero"
       id="path2" />
  </clipPath>
  <path
     fill="#000000"
     fill-opacity="0"
     d="M -11.57772,-8.8782 H 1066.6244 V 1296.7649 H -11.57772 Z"
     fill-rule="evenodd"
     id="path5" />
  <path
     fill="#000000"
     fill-opacity="0"
     d="m 797.06535,941.9722 h 94.67712 v 42.01575 h -94.67712 z"
     fill-rule="evenodd"
     id="path197" />
  <path
     fill="#000000"
     fill-opacity="0"
     d="m 599.25694,744.66513 h 338.99213 v 42.01575 H 599.25694 Z"
     fill-rule="evenodd"
     id="path201" />
  <g
     id="g799"
     transform="translate(-157.521,-1094.3635)">
    <path
       fill="#0000ff"
       d="m 230.021,1201.3674 h 42.03149 v 31.5118 H 230.021 Z"
       fill-rule="evenodd"
       id="path225" />
    <path
       fill="#0000cb"
       d="m 272.0525,1201.3674 10.50394,-10.5039 v 31.5118 l -10.50394,10.5039 z"
       fill-rule="evenodd"
       id="path227" />
    <path
       fill="#3333ff"
       d="m 230.021,1201.3674 10.50394,-10.5039 h 42.03149 l -10.50394,10.5039 z"
       fill-rule="evenodd"
       id="path229" />
    <path
       fill="#000000"
       fill-opacity="0"
       d="m 230.021,1201.3674 10.50394,-10.5039 h 42.03149 v 31.5118 l -10.50394,10.5039 H 230.021 Z m 0,0 h 42.03149 l 10.50394,-10.5039 m -10.50394,10.5039 v 31.5118"
       fill-rule="evenodd"
       id="path231" />
    <path
       stroke="#000000"
       stroke-width="1"
       stroke-linejoin="round"
       stroke-linecap="butt"
       d="m 230.021,1201.3674 10.50394,-10.5039 h 42.03149 v 31.5118 l -10.50394,10.5039 H 230.021 Z m 0,0 h 42.03149 l 10.50394,-10.5039 m -10.50394,10.5039 v 31.5118"
       fill-rule="evenodd"
       id="path233" />
    <path
       fill="#0b5394"
       d="m 206.021,1169.3674 h 42.03149 v 31.5118 H 206.021 Z"
       fill-rule="evenodd"
       id="path235" />
    <path
       fill="#084276"
       d="m 248.05249,1169.3674 10.50394,-10.5039 v 31.5118 l -10.50394,10.5039 z"
       fill-rule="evenodd"
       id="path237" />
    <path
       fill="#3b75a9"
       d="m 206.021,1169.3674 10.50394,-10.5039 h 42.03149 l -10.50394,10.5039 z"
       fill-rule="evenodd"
       id="path239" />
    <path
       fill="#000000"
       fill-opacity="0"
       d="m 206.021,1169.3674 10.50394,-10.5039 h 42.03149 v 31.5118 l -10.50394,10.5039 H 206.021 Z m 0,0 h 42.03149 l 10.50394,-10.5039 m -10.50394,10.5039 v 31.5118"
       fill-rule="evenodd"
       id="path241" />
    <path
       stroke="#000000"
       stroke-width="1"
       stroke-linejoin="round"
       stroke-linecap="butt"
       d="m 206.021,1169.3674 10.50394,-10.5039 h 42.03149 v 31.5118 l -10.50394,10.5039 H 206.021 Z m 0,0 h 42.03149 l 10.50394,-10.5039 m -10.50394,10.5039 v 31.5118"
       fill-rule="evenodd"
       id="path243" />
    <path
       fill="#1155cc"
       d="m 254.021,1169.3674 h 42.03149 v 31.5118 H 254.021 Z"
       fill-rule="evenodd"
       id="path245" />
    <path
       fill="#0d43a3"
       d="m 296.0525,1169.3674 10.50394,-10.5039 v 31.5118 l -10.50394,10.5039 z"
       fill-rule="evenodd"
       id="path247" />
    <path
       fill="#4077d6"
       d="m 254.021,1169.3674 10.50394,-10.5039 h 42.03149 l -10.50394,10.5039 z"
       fill-rule="evenodd"
       id="path249" />
    <path
       fill="#000000"
       fill-opacity="0"
       d="m 254.021,1169.3674 10.50394,-10.5039 h 42.03149 v 31.5118 l -10.50394,10.5039 H 254.021 Z m 0,0 h 42.03149 l 10.50394,-10.5039 m -10.50394,10.5039 v 31.5118"
       fill-rule="evenodd"
       id="path251" />
    <path
       stroke="#000000"
       stroke-width="1"
       stroke-linejoin="round"
       stroke-linecap="butt"
       d="m 254.021,1169.3674 10.50394,-10.5039 h 42.03149 v 31.5118 l -10.50394,10.5039 H 254.021 Z m 0,0 h 42.03149 l 10.50394,-10.5039 m -10.50394,10.5039 v 31.5118"
       fill-rule="evenodd"
       id="path253" />
    <path
       fill="#3d85c6"
       d="m 182.021,1137.3674 h 42.03149 v 31.5118 H 182.021 Z"
       fill-rule="evenodd"
       id="path255" />
    <path
       fill="#306a9e"
       d="m 224.05249,1137.3674 10.50394,-10.5039 v 31.5118 l -10.50394,10.5039 z"
       fill-rule="evenodd"
       id="path257" />
    <path
       fill="#639dd1"
       d="m 182.021,1137.3674 10.50394,-10.5039 h 42.03149 l -10.50394,10.5039 z"
       fill-rule="evenodd"
       id="path259" />
    <path
       fill="#000000"
       fill-opacity="0"
       d="m 182.021,1137.3674 10.50394,-10.5039 h 42.03149 v 31.5118 l -10.50394,10.5039 H 182.021 Z m 0,0 h 42.03149 l 10.50394,-10.5039 m -10.50394,10.5039 v 31.5118"
       fill-rule="evenodd"
       id="path261" />
    <path
       stroke="#000000"
       stroke-width="1"
       stroke-linejoin="round"
       stroke-linecap="butt"
       d="m 182.021,1137.3674 10.50394,-10.5039 h 42.03149 v 31.5118 l -10.50394,10.5039 H 182.021 Z m 0,0 h 42.03149 l 10.50394,-10.5039 m -10.50394,10.5039 v 31.5118"
       fill-rule="evenodd"
       id="path263" />
    <path
       fill="#3c78d8"
       d="m 278.021,1137.3674 h 42.03149 v 31.5118 H 278.021 Z"
       fill-rule="evenodd"
       id="path265" />
    <path
       fill="#2f5fac"
       d="m 320.0525,1137.3674 10.50394,-10.5039 v 31.5118 l -10.50394,10.5039 z"
       fill-rule="evenodd"
       id="path267" />
    <path
       fill="#6393df"
       d="m 278.021,1137.3674 10.50394,-10.5039 h 42.03149 l -10.50394,10.5039 z"
       fill-rule="evenodd"
       id="path269" />
    <path
       fill="#000000"
       fill-opacity="0"
       d="m 278.021,1137.3674 10.50394,-10.5039 h 42.03149 v 31.5118 l -10.50394,10.5039 H 278.021 Z m 0,0 h 42.03149 l 10.50394,-10.5039 m -10.50394,10.5039 v 31.5118"
       fill-rule="evenodd"
       id="path271" />
    <path
       stroke="#000000"
       stroke-width="1"
       stroke-linejoin="round"
       stroke-linecap="butt"
       d="m 278.021,1137.3674 10.50394,-10.5039 h 42.03149 v 31.5118 l -10.50394,10.5039 H 278.021 Z m 0,0 h 42.03149 l 10.50394,-10.5039 m -10.50394,10.5039 v 31.5118"
       fill-rule="evenodd"
       id="path273" />
    <path
       fill="#6fa8dc"
       d="m 158.021,1105.3674 h 42.03149 v 31.5118 H 158.021 Z"
       fill-rule="evenodd"
       id="path275" />
    <path
       fill="#5886af"
       d="m 200.05249,1105.3674 10.50394,-10.5039 v 31.5118 l -10.50394,10.5039 z"
       fill-rule="evenodd"
       id="path277" />
    <path
       fill="#8bb9e3"
       d="m 158.021,1105.3674 10.50394,-10.5039 h 42.03149 l -10.50394,10.5039 z"
       fill-rule="evenodd"
       id="path279" />
    <path
       fill="#000000"
       fill-opacity="0"
       d="m 158.021,1105.3674 10.50394,-10.5039 h 42.03149 v 31.5118 l -10.50394,10.5039 H 158.021 Z m 0,0 h 42.03149 l 10.50394,-10.5039 m -10.50394,10.5039 v 31.5118"
       fill-rule="evenodd"
       id="path281" />
    <path
       stroke="#000000"
       stroke-width="1"
       stroke-linejoin="round"
       stroke-linecap="butt"
       d="m 158.021,1105.3674 10.50394,-10.5039 h 42.03149 v 31.5118 l -10.50394,10.5039 H 158.021 Z m 0,0 h 42.03149 l 10.50394,-10.5039 m -10.50394,10.5039 v 31.5118"
       fill-rule="evenodd"
       id="path283" />
    <path
       fill="#6d9eeb"
       d="m 302.021,1105.3674 h 42.03149 v 31.5118 H 302.021 Z"
       fill-rule="evenodd"
       id="path285" />
    <path
       fill="#577ebb"
       d="m 344.0525,1105.3674 10.50394,-10.5039 v 31.5118 l -10.50394,10.5039 z"
       fill-rule="evenodd"
       id="path287" />
    <path
       fill="#8ab1ef"
       d="m 302.021,1105.3674 10.50394,-10.5039 h 42.03149 l -10.50394,10.5039 z"
       fill-rule="evenodd"
       id="path289" />
    <path
       fill="#000000"
       fill-opacity="0"
       d="m 302.021,1105.3674 10.50394,-10.5039 h 42.03149 v 31.5118 l -10.50394,10.5039 H 302.021 Z m 0,0 h 42.03149 l 10.50394,-10.5039 m -10.50394,10.5039 v 31.5118"
       fill-rule="evenodd"
       id="path291" />
    <path
       stroke="#000000"
       stroke-width="1"
       stroke-linejoin="round"
       stroke-linecap="butt"
       d="m 302.021,1105.3674 10.50394,-10.5039 h 42.03149 v 31.5118 l -10.50394,10.5039 H 302.021 Z m 0,0 h 42.03149 l 10.50394,-10.5039 m -10.50394,10.5039 v 31.5118"
       fill-rule="evenodd"
       id="path293" />
  </g>
  <path
     fill="#000000"
     fill-opacity="0"
     d="m 312.01808,1213.4735 h 94.67718 v 42.0157 h -94.67718 z"
     fill-rule="evenodd"
     id="path295" />
</svg>
